<svg width="150" height="40" viewBox="0 0 150 40" fill="none" xmlns="http://www.w3.org/2000/svg">
  <path d="M20 10C14.477 10 10 14.477 10 20C10 25.523 14.477 30 20 30C25.523 30 30 25.523 30 20C30 14.477 25.523 10 20 10ZM24.5 21H20.5V25C20.5 25.552 20.052 26 19.5 26C18.948 26 18.5 25.552 18.5 25V21H14.5C13.948 21 13.5 20.552 13.5 20C13.5 19.448 13.948 19 14.5 19H18.5V15C18.5 14.448 18.948 14 19.5 14C20.052 14 20.5 14.448 20.5 15V19H24.5C25.052 19 25.5 19.448 25.5 20C25.5 20.552 25.052 21 24.5 21Z" fill="#00A0E3"/>
  <text x="40" y="25" font-family="Arial, sans-serif" font-size="16" font-weight="bold" fill="#FFFFFF">Fantasy Sports</text>
</svg> 