<svg width="24" height="24" viewBox="0 0 24 24" fill="none" xmlns="http://www.w3.org/2000/svg">
  <path d="M12 2C6.48 2 2 6.48 2 12C2 17.52 6.48 22 12 22C17.52 22 22 17.52 22 12C22 6.48 17.52 2 12 2ZM12.88 17.76V19H11.12V17.73C9.44 17.45 8.07 16.46 8 14.84H9.82C9.88 15.63 10.63 16.22 12.01 16.22C13.48 16.22 14.08 15.54 14.08 14.79C14.08 14.08 13.62 13.57 12.1 13.19L10.58 12.81C8.59 12.31 7.75 11.28 7.75 9.83C7.75 8.16 9.09 7.05 11.12 6.79V5.5H12.88V6.82C14.44 7.14 15.57 8.23 15.62 9.71H13.8C13.74 8.91 13.08 8.34 12 8.34C10.76 8.34 10.14 8.93 10.14 9.64C10.14 10.28 10.61 10.73 11.91 11.07L13.34 11.42C15.42 11.94 16.42 12.91 16.42 14.42C16.42 16.15 15.03 17.37 12.88 17.76Z" fill="currentColor"/>
</svg>